<?xml version="1.0" encoding="UTF-8"?>
<svg width="168px" height="121px" viewBox="0 0 168 121" version="1.1" xmlns="http://www.w3.org/2000/svg" xmlns:xlink="http://www.w3.org/1999/xlink">
    <!-- Generator: Sketch 61.2 (89653) - https://sketch.com -->
    <title>Fill 1</title>
    <desc>Created with Sketch.</desc>
    <g id="Desktop" stroke="none" stroke-width="1" fill="none" fill-rule="evenodd">
        <g id="QUIZ-final" transform="translate(-885.000000, -3380.000000)" fill="#a468ce">
            <path d="M983.813537,3473.47239 C983.263622,3474.63934 984.369872,3476.79395 987.612149,3480.79754 C981.868988,3478.09676 975.508195,3476.65073 969.127944,3476.60479 C969.080658,3476.6046 969.033956,3476.6046 968.986671,3476.6046 C962.618289,3476.6046 956.265085,3477.99443 950.519784,3480.63648 C953.66457,3476.73251 954.733459,3474.62461 954.188409,3473.47162 C953.90742,3472.87739 953.229659,3472.58841 952.11582,3472.58841 C950.015209,3472.58841 946.308444,3473.61077 941.375755,3475.24888 C949.440582,3471.10381 952.015022,3469.09474 951.656585,3467.4578 C951.132746,3465.06557 943.605185,3464.31513 925.819951,3463.66256 C943.605185,3463.01019 951.132746,3462.25955 951.656585,3459.86751 C952.015022,3458.23038 949.440777,3456.22131 941.37595,3452.07624 C946.308833,3453.71473 950.015404,3454.7369 952.11582,3454.7369 C953.258848,3454.7369 953.945365,3454.43494 954.21429,3453.81397 C955.13957,3451.67815 950.48145,3446.05157 938.884406,3433.66694 C950.117564,3444.09581 956.011338,3449.05296 958.500936,3449.05296 C958.999868,3449.05296 959.385937,3448.8667 959.647662,3448.49904 C960.537916,3447.2503 959.943051,3443.88319 957.356157,3436.1272 C961.300129,3443.73667 963.313757,3446.41827 964.910572,3446.41827 C967.542416,3446.41827 968.317472,3439.19642 968.999903,3420.67141 C969.682334,3439.19642 970.457195,3446.41827 973.089234,3446.41827 C974.685464,3446.41827 976.698314,3443.7388 980.638589,3436.1365 C978.019198,3443.97177 977.448852,3447.23286 978.351365,3448.49885 C978.61309,3448.86651 978.999354,3449.05296 979.498869,3449.05296 C981.988467,3449.05296 987.883019,3444.09503 999.114426,3433.66771 C987.517188,3446.05254 982.859457,3451.67854 983.784348,3453.81358 C984.053273,3454.43475 984.740374,3454.7369 985.88418,3454.7369 C987.984401,3454.7369 991.691167,3453.71454 996.62405,3452.07624 C988.559223,3456.22131 985.984784,3458.23038 986.343415,3459.86751 C986.86706,3462.25955 994.394815,3463.01019 1012.17985,3463.66256 C994.394815,3464.31513 986.86706,3465.06557 986.343415,3467.4578 C985.984784,3469.09474 988.559223,3471.10381 996.62405,3475.24888 C991.691361,3473.61077 987.984985,3472.58841 985.88418,3472.58841 C984.771119,3472.58841 984.093553,3472.87777 983.813537,3473.47239 L983.813537,3473.47239 Z M1020.88469,3462.36285 C1013.65855,3462.13551 1005.46821,3461.87813 999.056049,3461.42441 C989.573043,3460.75343 988.082475,3459.89852 987.909095,3459.53241 C987.934586,3459.15467 989.078587,3457.55416 1001.10704,3451.60276 L1015.63093,3444.41676 L1015.40481,3443.88184 L1000.09536,3449.21014 C994.222796,3451.25409 988.436826,3453.14551 985.88418,3453.14551 C985.523214,3453.14551 985.321812,3453.10539 985.22257,3453.07612 C985.178982,3452.49914 986.109127,3450.52535 991.900741,3443.92622 C996.114027,3439.12529 1001.68945,3433.23745 1006.6091,3428.04211 L1030.3965,3402.92243 L1029.98396,3402.51135 L1004.76341,3426.2036 C994.338189,3435.99696 982.545776,3447.07452 979.642672,3447.45167 C979.494199,3447.11735 979.380363,3445.85679 980.74756,3441.1295 C981.674008,3437.92636 982.912969,3434.39432 983.510169,3432.69148 L988.860256,3417.44287 L988.323184,3417.21766 L981.108137,3431.68404 C980.304476,3433.2954 978.631966,3436.64836 976.97658,3439.55613 C974.356605,3444.15822 973.409336,3444.7664 973.133406,3444.82222 C972.759013,3444.62162 971.913126,3443.06531 971.247235,3433.7276 C970.791697,3427.34108 970.53328,3419.18312 970.305025,3411.98453 L969.291595,3380 L968.708211,3380 L967.694586,3411.98472 C967.466525,3419.18138 967.208108,3427.33857 966.752765,3433.72508 C966.086874,3443.06085 965.240598,3444.62046 964.865816,3444.82241 C964.589496,3444.76621 963.642032,3444.15686 961.023031,3439.55613 C959.366478,3436.64623 957.69494,3433.29462 956.891668,3431.68385 L949.676816,3417.21844 L949.139939,3417.44365 L954.489442,3432.69148 C955.084501,3434.38792 956.323073,3437.91783 957.260418,3441.12524 C958.634231,3445.82617 958.55873,3447.10591 958.424462,3447.45245 C955.440797,3447.06211 943.655584,3435.99153 933.236206,3426.2036 L908.016231,3402.51193 L907.603698,3402.92301 L931.39051,3428.04211 C936.30802,3433.23532 941.882081,3439.1216 946.094199,3443.92486 C951.848063,3450.48601 952.799029,3452.4848 952.765754,3453.08097 C952.654059,3453.1112 952.453241,3453.14551 952.11582,3453.14551 C949.56298,3453.14551 943.777009,3451.25409 937.90464,3449.21014 L922.594993,3443.88184 L922.368879,3444.41676 L936.892766,3451.60276 C948.921218,3457.55416 950.065025,3459.15641 950.090322,3459.53454 C949.917135,3459.90046 948.426763,3460.75421 938.943951,3461.4248 C932.531786,3461.87813 924.341643,3462.13551 917.114336,3462.36285 L885,3463.37203 L885,3463.95308 L917.114336,3464.96266 C924.339892,3465.1898 932.52984,3465.44719 938.943367,3465.9009 C948.427346,3466.57188 949.917525,3467.42679 950.090711,3467.79271 C950.065219,3468.17064 948.921218,3469.77096 936.892766,3475.72236 L922.368879,3482.90874 L922.594993,3483.44347 L937.90464,3478.11517 C943.777009,3476.07123 949.56298,3474.17981 952.11582,3474.17981 C952.476203,3474.17981 952.677604,3474.21973 952.777235,3474.24919 C952.816348,3474.79516 951.979995,3476.61506 946.818662,3482.5686 C946.730512,3482.61919 946.641195,3482.66784 946.551878,3482.71629 C946.410215,3482.79362 946.268748,3482.87076 946.132339,3482.95429 C944.074344,3484.19896 942.031722,3485.70663 940.061098,3487.43621 C935.908525,3491.08066 932.435074,3495.53661 930.015918,3500.32224 L930.531001,3500.5959 C934.396163,3493.77117 940.032299,3488.07308 946.829559,3484.11736 C953.651533,3480.13858 961.351501,3478.09366 969.121911,3478.19503 C969.155576,3478.19503 969.188851,3478.19483 969.222515,3478.19483 C976.95498,3478.19483 984.60202,3480.32445 991.343432,3484.35614 C998.088737,3488.3793 1003.66455,3494.13457 1007.46764,3501 L1007.98525,3500.73138 C1005.54196,3495.77636 1001.99651,3491.17893 997.732441,3487.43621 C995.881491,3485.81109 993.97119,3484.38502 992.056025,3483.1983 C991.926233,3483.1169 991.792743,3483.04228 991.659059,3482.96766 C991.574607,3482.92037 991.489959,3482.87328 991.40648,3482.82405 C986.086944,3476.70674 985.203111,3474.81706 985.234441,3474.24396 C985.34633,3474.21372 985.547148,3474.17981 985.88418,3474.17981 C988.43702,3474.17981 994.222991,3476.07123 1000.09536,3478.11517 L1015.40501,3483.44347 L1015.63112,3482.90874 L1001.10704,3475.72236 C989.077809,3469.77057 987.934781,3468.16871 987.909678,3467.79077 C988.08267,3467.42505 989.572654,3466.57111 999.056438,3465.90051 C1005.47016,3465.44719 1013.65991,3465.1898 1020.88566,3464.96266 L1053,3463.95308 L1053,3463.37203 L1020.88469,3462.36285 Z" id="Fill-1"></path>
        </g>
    </g>
</svg>